<svg width="21" height="21" viewBox="0 0 21 21" fill="none" xmlns="http://www.w3.org/2000/svg">
<rect x="0.655518" y="0.0439453" width="20.3183" height="20.3183" rx="1.45131" fill="#EDEFF6"/>
<path d="M10.8147 15.1921C10.8147 15.1921 5.14551 12.0174 5.14551 8.16233C5.14551 7.48083 5.38163 6.82038 5.81369 6.29335C6.24575 5.76632 6.84707 5.40526 7.51534 5.27161C8.1836 5.13795 8.87753 5.23996 9.47907 5.56028C10.0806 5.88059 10.5526 6.39942 10.8147 7.0285V7.0285C11.0768 6.39942 11.5488 5.88059 12.1503 5.56028C12.7518 5.23996 13.4458 5.13795 14.114 5.27161C14.7823 5.40526 15.3836 5.76632 15.8157 6.29335C16.2477 6.82038 16.4839 7.48083 16.4839 8.16233C16.4839 12.0174 10.8147 15.1921 10.8147 15.1921Z" stroke="#4A60A1" stroke-width="0.936687" stroke-linecap="round" stroke-linejoin="round"/>
</svg>
