<svg width="120" height="44" viewBox="0 0 120 44" fill="none" xmlns="http://www.w3.org/2000/svg">
<path d="M37.125 37.1257V19.8523C37.1219 19.662 37.0808 19.4743 37.0041 19.3001C36.9273 19.1259 36.8165 18.9689 36.6781 18.8382L22.9281 6.34292C22.6746 6.11103 22.3435 5.98242 22 5.98242C21.6565 5.98242 21.3254 6.11103 21.0719 6.34292L7.32187 18.8382C7.18351 18.9689 7.07269 19.1259 6.99595 19.3001C6.9192 19.4743 6.87808 19.662 6.875 19.8523V37.1257" stroke="#4A60A1" stroke-width="2.75" stroke-linecap="round" stroke-linejoin="round"/>
<path d="M2.75 37.125H41.25" stroke="#4A60A1" stroke-width="2.75" stroke-linecap="round" stroke-linejoin="round"/>
<path d="M26.125 37.125V27.5C26.125 27.1353 25.9801 26.7856 25.7223 26.5277C25.4644 26.2699 25.1147 26.125 24.75 26.125H19.25C18.8853 26.125 18.5356 26.2699 18.2777 26.5277C18.0199 26.7856 17.875 27.1353 17.875 27.5V37.125" stroke="#4A60A1" stroke-width="2.75" stroke-linecap="round" stroke-linejoin="round"/>
<path d="M53.9699 23V5.54545H60.5154C61.8563 5.54545 62.9813 5.77841 63.8904 6.24432C64.8051 6.71023 65.4955 7.36364 65.9614 8.20454C66.433 9.03977 66.6688 10.0142 66.6688 11.1278C66.6688 12.2472 66.4301 13.2187 65.9529 14.0426C65.4813 14.8608 64.7852 15.4943 63.8648 15.9432C62.9443 16.3864 61.8137 16.608 60.4727 16.608H55.8108V13.983H60.0466C60.8307 13.983 61.4727 13.875 61.9727 13.6591C62.4727 13.4375 62.8421 13.1165 63.0807 12.696C63.325 12.2699 63.4472 11.7472 63.4472 11.1278C63.4472 10.5085 63.325 9.98011 63.0807 9.54261C62.8364 9.09943 62.4642 8.7642 61.9642 8.53693C61.4642 8.30398 60.8193 8.1875 60.0296 8.1875H57.1318V23H53.9699ZM62.9869 15.0909L67.308 23H63.7796L59.5352 15.0909H62.9869ZM69.6273 23V5.54545H80.9796V8.19602H72.7892V12.9347H80.3915V15.5852H72.7892V20.3494H81.0477V23H69.6273ZM87.4153 5.54545V23H84.2534V5.54545H87.4153ZM100.373 10.3438C100.294 9.59943 99.9584 9.01989 99.3675 8.60511C98.7822 8.19034 98.0209 7.98295 97.0834 7.98295C96.4243 7.98295 95.8589 8.08239 95.3873 8.28125C94.9157 8.48011 94.555 8.75 94.305 9.09091C94.055 9.43182 93.9271 9.82102 93.9214 10.2585C93.9214 10.6222 94.0038 10.9375 94.1686 11.2045C94.339 11.4716 94.5692 11.6989 94.8589 11.8864C95.1487 12.0682 95.4697 12.2216 95.822 12.3466C96.1743 12.4716 96.5294 12.5767 96.8873 12.6619L98.5237 13.071C99.1828 13.2244 99.8163 13.4318 100.424 13.6932C101.038 13.9545 101.586 14.2841 102.069 14.6818C102.558 15.0795 102.944 15.5597 103.228 16.1222C103.512 16.6847 103.654 17.3437 103.654 18.0994C103.654 19.1222 103.393 20.0227 102.87 20.8011C102.348 21.5739 101.592 22.179 100.603 22.6165C99.6203 23.0483 98.43 23.2642 97.0322 23.2642C95.6743 23.2642 94.4953 23.054 93.4953 22.6335C92.501 22.2131 91.7226 21.5994 91.1601 20.7926C90.6032 19.9858 90.3021 19.0028 90.2567 17.8438H93.3675C93.4129 18.4517 93.6004 18.9574 93.93 19.3608C94.2595 19.7642 94.6885 20.0653 95.2169 20.2642C95.751 20.4631 96.3476 20.5625 97.0067 20.5625C97.6942 20.5625 98.2964 20.4602 98.8135 20.2557C99.3362 20.0455 99.7453 19.7557 100.041 19.3864C100.336 19.0114 100.487 18.5739 100.492 18.0739C100.487 17.6193 100.353 17.2443 100.092 16.9489C99.8305 16.6477 99.464 16.3977 98.9925 16.1989C98.5265 15.9943 97.9811 15.8125 97.3561 15.6534L95.3703 15.142C93.9328 14.7727 92.7964 14.2131 91.9612 13.4631C91.1317 12.7074 90.7169 11.7045 90.7169 10.4545C90.7169 9.42614 90.9953 8.52557 91.5521 7.75284C92.1146 6.98011 92.8788 6.38068 93.8447 5.95454C94.8106 5.52273 95.9044 5.30682 97.126 5.30682C98.3646 5.30682 99.4498 5.52273 100.382 5.95454C101.319 6.38068 102.055 6.97443 102.589 7.73579C103.123 8.49148 103.399 9.3608 103.416 10.3438H100.373Z" fill="#4A60A1"/>
<path d="M53.1987 39V28.8182H56.8279C57.6168 28.8182 58.2714 28.9541 58.7917 29.2259C59.3154 29.4976 59.7065 29.8738 59.965 30.3544C60.2235 30.8317 60.3528 31.3835 60.3528 32.0099C60.3528 32.633 60.2219 33.1816 59.96 33.6555C59.7015 34.1262 59.3104 34.4924 58.7868 34.7543C58.2664 35.0161 57.6118 35.147 56.823 35.147H54.0737V33.8246H56.6838C57.1809 33.8246 57.5853 33.7533 57.8968 33.6108C58.2117 33.4683 58.4421 33.2611 58.5879 32.9893C58.7337 32.7176 58.8066 32.3911 58.8066 32.0099C58.8066 31.6255 58.7321 31.2924 58.5829 31.0107C58.4371 30.7289 58.2067 30.5135 57.8919 30.3643C57.5803 30.2119 57.171 30.1357 56.6639 30.1357H54.7349V39H53.1987ZM58.225 34.4062L60.7406 39H58.9906L56.5247 34.4062H58.225ZM65.2983 39.1541C64.5459 39.1541 63.898 38.9934 63.3544 38.6719C62.8142 38.3471 62.3965 37.8913 62.1016 37.3047C61.8099 36.7147 61.6641 36.0237 61.6641 35.2315C61.6641 34.4493 61.8099 33.7599 62.1016 33.1634C62.3965 32.5668 62.8075 32.1011 63.3345 31.7663C63.8648 31.4316 64.4846 31.2642 65.1939 31.2642C65.6248 31.2642 66.0424 31.3355 66.4467 31.478C66.8511 31.6205 67.214 31.8442 67.5355 32.1491C67.857 32.4541 68.1106 32.8501 68.2962 33.3374C68.4818 33.8213 68.5746 34.4096 68.5746 35.1023V35.6293H62.5043V34.5156H67.1179C67.1179 34.1245 67.0384 33.7782 66.8793 33.4766C66.7202 33.1716 66.4964 32.9313 66.2081 32.7557C65.9231 32.58 65.5883 32.4922 65.2038 32.4922C64.7862 32.4922 64.4216 32.5949 64.1101 32.8004C63.8018 33.0026 63.5632 33.2678 63.3942 33.5959C63.2285 33.9207 63.1456 34.2737 63.1456 34.6548V35.5249C63.1456 36.0353 63.2351 36.4695 63.4141 36.8274C63.5964 37.1854 63.8499 37.4588 64.1747 37.6477C64.4995 37.8333 64.879 37.9261 65.3132 37.9261C65.5949 37.9261 65.8518 37.8864 66.0838 37.8068C66.3158 37.724 66.5163 37.6013 66.6854 37.4389C66.8544 37.2765 66.9837 37.076 67.0732 36.8374L68.4801 37.0909C68.3674 37.5052 68.1652 37.8681 67.8736 38.1797C67.5852 38.4879 67.2223 38.7282 66.7848 38.9006C66.3506 39.0696 65.8551 39.1541 65.2983 39.1541ZM72.4462 39.169C71.9623 39.169 71.5248 39.0795 71.1337 38.9006C70.7426 38.7183 70.4327 38.4548 70.204 38.1101C69.9786 37.7654 69.8659 37.3428 69.8659 36.8423C69.8659 36.4115 69.9488 36.0568 70.1145 35.7784C70.2802 35.5 70.504 35.2796 70.7857 35.1172C71.0674 34.9548 71.3823 34.8321 71.7303 34.7493C72.0783 34.6664 72.4329 34.6035 72.7942 34.5604C73.2516 34.5073 73.6228 34.4643 73.9078 34.4311C74.1929 34.3946 74.4 34.3366 74.5293 34.2571C74.6586 34.1776 74.7232 34.0483 74.7232 33.8693V33.8345C74.7232 33.4003 74.6006 33.0639 74.3553 32.8253C74.1133 32.5866 73.7521 32.4673 73.2715 32.4673C72.771 32.4673 72.3766 32.5784 72.0882 32.8004C71.8032 33.0192 71.606 33.2628 71.4966 33.5312L70.0996 33.2131C70.2653 32.7491 70.5073 32.3745 70.8255 32.0895C71.147 31.8011 71.5165 31.5923 71.9341 31.4631C72.3517 31.3305 72.7909 31.2642 73.2516 31.2642C73.5565 31.2642 73.8797 31.3007 74.2211 31.3736C74.5658 31.4432 74.8873 31.5724 75.1855 31.7614C75.4872 31.9503 75.7341 32.2204 75.9263 32.5717C76.1185 32.9197 76.2147 33.3722 76.2147 33.929V39H74.763V37.956H74.7033C74.6072 38.1482 74.463 38.3371 74.2708 38.5227C74.0785 38.7083 73.8316 38.8625 73.53 38.9851C73.2284 39.1077 72.8671 39.169 72.4462 39.169ZM72.7694 37.9759C73.1803 37.9759 73.5317 37.8946 73.8233 37.7322C74.1183 37.5698 74.342 37.3577 74.4945 37.0959C74.6503 36.8307 74.7282 36.5473 74.7282 36.2457V35.2614C74.6751 35.3144 74.5724 35.3641 74.4199 35.4105C74.2708 35.4536 74.1001 35.4917 73.9078 35.5249C73.7156 35.5547 73.5284 35.5829 73.3461 35.6094C73.1638 35.6326 73.0113 35.6525 72.8887 35.669C72.6003 35.7055 72.3368 35.7668 72.0982 35.853C71.8629 35.9392 71.6739 36.0634 71.5314 36.2259C71.3922 36.3849 71.3226 36.5971 71.3226 36.8622C71.3226 37.2301 71.4585 37.5085 71.7303 37.6974C72.0021 37.883 72.3484 37.9759 72.7694 37.9759ZM79.6811 28.8182V39H78.1946V28.8182H79.6811ZM91.0586 31.4929C91.0056 31.0223 90.7868 30.6577 90.4023 30.3991C90.0179 30.1373 89.534 30.0064 88.9506 30.0064C88.533 30.0064 88.1718 30.0727 87.8668 30.2053C87.5619 30.3345 87.3249 30.5135 87.1559 30.7422C86.9902 30.9676 86.9073 31.2244 86.9073 31.5128C86.9073 31.7547 86.9637 31.9635 87.0763 32.1392C87.1924 32.3149 87.3432 32.4624 87.5288 32.5817C87.7177 32.6977 87.9199 32.7955 88.1353 32.875C88.3507 32.9512 88.5579 33.0142 88.7567 33.0639L89.7511 33.3224C90.0759 33.402 90.409 33.5097 90.7504 33.6456C91.0917 33.7815 91.4083 33.9605 91.6999 34.1825C91.9916 34.4046 92.2269 34.6797 92.4059 35.0078C92.5882 35.3359 92.6793 35.7287 92.6793 36.1861C92.6793 36.7628 92.5302 37.2749 92.2319 37.7223C91.9369 38.1697 91.5077 38.5227 90.9442 38.7812C90.3841 39.0398 89.7063 39.169 88.9109 39.169C88.1486 39.169 87.489 39.0481 86.9322 38.8061C86.3754 38.5642 85.9395 38.2211 85.6246 37.777C85.3098 37.3295 85.1358 36.7992 85.1026 36.1861H86.6438C86.6737 36.554 86.793 36.8606 87.0018 37.1058C87.2139 37.3478 87.484 37.5284 87.8121 37.6477C88.1436 37.7637 88.5065 37.8217 88.9009 37.8217C89.3351 37.8217 89.7212 37.7538 90.0593 37.6179C90.4007 37.4787 90.6692 37.2865 90.8647 37.0412C91.0603 36.7926 91.158 36.5026 91.158 36.1712C91.158 35.8696 91.0719 35.6226 90.8995 35.4304C90.7305 35.2382 90.5001 35.0791 90.2085 34.9531C89.9201 34.8272 89.5936 34.7161 89.229 34.62L88.0259 34.2919C87.2106 34.0698 86.5643 33.7434 86.087 33.3125C85.613 32.8816 85.3761 32.3116 85.3761 31.6023C85.3761 31.0156 85.5352 30.5036 85.8533 30.0661C86.1715 29.6286 86.6024 29.2888 87.146 29.0469C87.6895 28.8016 88.3027 28.679 88.9854 28.679C89.6748 28.679 90.283 28.8 90.81 29.0419C91.3403 29.2839 91.7579 29.617 92.0629 30.0412C92.3678 30.4621 92.5269 30.946 92.5401 31.4929H91.0586ZM97.9604 31.3636V32.5568H93.7892V31.3636H97.9604ZM94.9078 29.5341H96.3944V36.7578C96.3944 37.0462 96.4374 37.2633 96.5236 37.4091C96.6098 37.5516 96.7208 37.6494 96.8567 37.7024C96.9959 37.7521 97.1467 37.777 97.3091 37.777C97.4284 37.777 97.5328 37.7687 97.6223 37.7521C97.7118 37.7356 97.7814 37.7223 97.8311 37.7124L98.0996 38.9403C98.0134 38.9735 97.8908 39.0066 97.7317 39.0398C97.5726 39.0762 97.3738 39.0961 97.1351 39.0994C96.744 39.1061 96.3794 39.0365 96.0414 38.8906C95.7033 38.7448 95.4299 38.5194 95.2211 38.2145C95.0123 37.9096 94.9078 37.5268 94.9078 37.0661V29.5341ZM101.827 39.169C101.343 39.169 100.906 39.0795 100.515 38.9006C100.123 38.7183 99.8136 38.4548 99.5849 38.1101C99.3595 37.7654 99.2468 37.3428 99.2468 36.8423C99.2468 36.4115 99.3297 36.0568 99.4954 35.7784C99.6611 35.5 99.8848 35.2796 100.167 35.1172C100.448 34.9548 100.763 34.8321 101.111 34.7493C101.459 34.6664 101.814 34.6035 102.175 34.5604C102.632 34.5073 103.004 34.4643 103.289 34.4311C103.574 34.3946 103.781 34.3366 103.91 34.2571C104.039 34.1776 104.104 34.0483 104.104 33.8693V33.8345C104.104 33.4003 103.981 33.0639 103.736 32.8253C103.494 32.5866 103.133 32.4673 102.652 32.4673C102.152 32.4673 101.757 32.5784 101.469 32.8004C101.184 33.0192 100.987 33.2628 100.877 33.5312L99.4805 33.2131C99.6462 32.7491 99.8881 32.3745 100.206 32.0895C100.528 31.8011 100.897 31.5923 101.315 31.4631C101.733 31.3305 102.172 31.2642 102.632 31.2642C102.937 31.2642 103.261 31.3007 103.602 31.3736C103.947 31.4432 104.268 31.5724 104.566 31.7614C104.868 31.9503 105.115 32.2204 105.307 32.5717C105.499 32.9197 105.596 33.3722 105.596 33.929V39H104.144V37.956H104.084C103.988 38.1482 103.844 38.3371 103.652 38.5227C103.459 38.7083 103.212 38.8625 102.911 38.9851C102.609 39.1077 102.248 39.169 101.827 39.169ZM102.15 37.9759C102.561 37.9759 102.913 37.8946 103.204 37.7322C103.499 37.5698 103.723 37.3577 103.875 37.0959C104.031 36.8307 104.109 36.5473 104.109 36.2457V35.2614C104.056 35.3144 103.953 35.3641 103.801 35.4105C103.652 35.4536 103.481 35.4917 103.289 35.5249C103.096 35.5547 102.909 35.5829 102.727 35.6094C102.545 35.6326 102.392 35.6525 102.27 35.669C101.981 35.7055 101.718 35.7668 101.479 35.853C101.244 35.9392 101.055 36.0634 100.912 36.2259C100.773 36.3849 100.703 36.5971 100.703 36.8622C100.703 37.2301 100.839 37.5085 101.111 37.6974C101.383 37.883 101.729 37.9759 102.15 37.9759ZM111.14 31.3636V32.5568H106.969V31.3636H111.14ZM108.088 29.5341H109.574V36.7578C109.574 37.0462 109.617 37.2633 109.703 37.4091C109.789 37.5516 109.901 37.6494 110.036 37.7024C110.176 37.7521 110.326 37.777 110.489 37.777C110.608 37.777 110.713 37.7687 110.802 37.7521C110.892 37.7356 110.961 37.7223 111.011 37.7124L111.279 38.9403C111.193 38.9735 111.07 39.0066 110.911 39.0398C110.752 39.0762 110.553 39.0961 110.315 39.0994C109.924 39.1061 109.559 39.0365 109.221 38.8906C108.883 38.7448 108.61 38.5194 108.401 38.2145C108.192 37.9096 108.088 37.5268 108.088 37.0661V29.5341ZM115.994 39.1541C115.241 39.1541 114.593 38.9934 114.05 38.6719C113.509 38.3471 113.092 37.8913 112.797 37.3047C112.505 36.7147 112.359 36.0237 112.359 35.2315C112.359 34.4493 112.505 33.7599 112.797 33.1634C113.092 32.5668 113.503 32.1011 114.03 31.7663C114.56 31.4316 115.18 31.2642 115.889 31.2642C116.32 31.2642 116.738 31.3355 117.142 31.478C117.546 31.6205 117.909 31.8442 118.231 32.1491C118.552 32.4541 118.806 32.8501 118.991 33.3374C119.177 33.8213 119.27 34.4096 119.27 35.1023V35.6293H113.2V34.5156H117.813C117.813 34.1245 117.734 33.7782 117.575 33.4766C117.415 33.1716 117.192 32.9313 116.903 32.7557C116.618 32.58 116.284 32.4922 115.899 32.4922C115.482 32.4922 115.117 32.5949 114.805 32.8004C114.497 33.0026 114.259 33.2678 114.089 33.5959C113.924 33.9207 113.841 34.2737 113.841 34.6548V35.5249C113.841 36.0353 113.93 36.4695 114.109 36.8274C114.292 37.1854 114.545 37.4588 114.87 37.6477C115.195 37.8333 115.574 37.9261 116.009 37.9261C116.29 37.9261 116.547 37.8864 116.779 37.8068C117.011 37.724 117.212 37.6013 117.381 37.4389C117.55 37.2765 117.679 37.076 117.768 36.8374L119.175 37.0909C119.063 37.5052 118.861 37.8681 118.569 38.1797C118.281 38.4879 117.918 38.7282 117.48 38.9006C117.046 39.0696 116.55 39.1541 115.994 39.1541Z" fill="#4A60A1"/>
</svg>
