<svg width="24" height="25" viewBox="0 0 24 25" fill="none" xmlns="http://www.w3.org/2000/svg">
<path d="M2.06707 1.78763C2.60984 1.15027 3.24712 0.990723 3.64153 0.990723C4.0347 0.990723 4.43034 0.991682 4.77405 1.00635C5.19566 1.02368 5.66081 1.04664 6.1022 2.10535C6.62766 3.36539 7.77584 6.51598 7.92296 6.83466C8.07009 7.15334 8.16784 7.5266 7.97126 7.94928C7.77468 8.37329 7.67748 8.63719 7.38446 9.00921C7.08896 9.38122 6.76404 9.83849 6.49822 10.1238C6.20273 10.4398 5.89613 10.7887 6.23984 11.4234C6.58479 12.0607 7.76591 14.1456 9.52157 15.8323C11.7792 18.0017 13.6793 18.6726 14.2715 18.9939C14.8625 19.3126 15.2064 19.2591 15.5514 18.8324C15.8963 18.4084 17.0272 16.9749 17.4204 16.3376C17.8136 15.7002 18.2094 15.8079 18.751 16.0199C19.2925 16.2319 22.1939 17.7716 22.7837 18.0902C23.3747 18.4089 23.7691 18.5697 23.9163 18.835C24.0609 19.0977 24.0606 20.3705 23.5685 21.8586C23.0764 23.3466 20.6647 24.7807 19.5817 24.8847C18.4986 24.9914 17.4842 25.4136 12.4966 23.2935C6.49399 20.7414 2.70424 14.1039 2.40998 13.6812L2.40242 13.6703C2.08025 13.2054 0 10.2031 0 7.09509C0 3.96166 1.52553 2.42232 2.06707 1.78763Z" fill="#4A60A1"/>
</svg>
