<svg width="21" height="21" viewBox="0 0 21 21" fill="none" xmlns="http://www.w3.org/2000/svg">
<rect x="0.629272" y="0.0439453" width="20.3183" height="20.3183" rx="1.45131" fill="#EDEFF6"/>
<path d="M7.16008 12.0174C8.16201 12.0174 8.97422 11.2052 8.97422 10.2033C8.97422 9.20138 8.16201 8.38916 7.16008 8.38916C6.15816 8.38916 5.34595 9.20138 5.34595 10.2033C5.34595 11.2052 6.15816 12.0174 7.16008 12.0174Z" stroke="#4A60A1" stroke-width="0.936687" stroke-linecap="round" stroke-linejoin="round"/>
<path d="M13.5096 16.0995C14.5115 16.0995 15.3237 15.2872 15.3237 14.2853C15.3237 13.2834 14.5115 12.4712 13.5096 12.4712C12.5077 12.4712 11.6954 13.2834 11.6954 14.2853C11.6954 15.2872 12.5077 16.0995 13.5096 16.0995Z" stroke="#4A60A1" stroke-width="0.936687" stroke-linecap="round" stroke-linejoin="round"/>
<path d="M13.5096 7.9354C14.5115 7.9354 15.3237 7.12319 15.3237 6.12127C15.3237 5.11935 14.5115 4.30713 13.5096 4.30713C12.5077 4.30713 11.6954 5.11935 11.6954 6.12127C11.6954 7.12319 12.5077 7.9354 13.5096 7.9354Z" stroke="#4A60A1" stroke-width="0.936687" stroke-linecap="round" stroke-linejoin="round"/>
<path d="M11.9846 7.10254L8.68518 9.22281" stroke="#4A60A1" stroke-width="0.936687" stroke-linecap="round" stroke-linejoin="round"/>
<path d="M8.68518 11.1841L11.9846 13.3044" stroke="#4A60A1" stroke-width="0.936687" stroke-linecap="round" stroke-linejoin="round"/>
</svg>
