<svg width="48" height="49" viewBox="0 0 48 49" fill="none" xmlns="http://www.w3.org/2000/svg">
<rect width="48" height="48" transform="translate(0 0.990234)" fill="#EDEFF6"/>
<g clip-path="url(#clip0_308_2057)">
<path d="M14 17.3135C14 16.64 14.2252 16.0845 14.6757 15.6468C15.1261 15.2091 15.7117 14.9902 16.4324 14.9902C17.1403 14.9902 17.713 15.2057 18.1506 15.6367C18.601 16.0811 18.8263 16.6603 18.8263 17.3741C18.8263 18.0205 18.6075 18.5592 18.1699 18.9902C17.7194 19.4347 17.1274 19.6569 16.3938 19.6569H16.3745C15.6667 19.6569 15.094 19.4347 14.6564 18.9902C14.2188 18.5458 14 17.9869 14 17.3135ZM14.251 34.9902V21.4953H18.5367V34.9902H14.251ZM20.9112 34.9902H25.1969V27.4549C25.1969 26.9835 25.2484 26.6198 25.3514 26.364C25.5315 25.906 25.805 25.5188 26.1718 25.2023C26.5386 24.8858 26.9987 24.7276 27.5521 24.7276C28.9936 24.7276 29.7143 25.7444 29.7143 27.7781V34.9902H34V27.2528C34 25.2596 33.5496 23.7478 32.6486 22.7175C31.7477 21.6872 30.5573 21.172 29.0772 21.172C27.417 21.172 26.1236 21.9195 25.1969 23.4145V23.4549H25.1776L25.1969 23.4145V21.4953H20.9112C20.9369 21.9262 20.9498 23.2663 20.9498 25.5155C20.9498 27.7646 20.9369 30.9229 20.9112 34.9902Z" fill="#4A60A1"/>
</g>
<defs>
<clipPath id="clip0_308_2057">
<rect width="20" height="20" fill="white" transform="translate(14 14.9902)"/>
</clipPath>
</defs>
</svg>
