<svg width="48" height="49" viewBox="0 0 48 49" fill="none" xmlns="http://www.w3.org/2000/svg">
<rect width="48" height="48" transform="translate(0 0.990234)" fill="#EDEFF6"/>
<g clip-path="url(#clip0_308_2055)">
<path d="M14 24.9902C14 23.1769 14.4467 21.5036 15.34 19.9702C16.2333 18.4369 17.4467 17.2236 18.98 16.3302C20.5133 15.4369 22.1867 14.9902 24 14.9902C25.8133 14.9902 27.4867 15.4369 29.02 16.3302C30.5533 17.2236 31.7667 18.4369 32.66 19.9702C33.5533 21.5036 34 23.1769 34 24.9902C34 26.8036 33.5533 28.4769 32.66 30.0102C31.7667 31.5436 30.5533 32.7569 29.02 33.6502C27.4867 34.5436 25.8133 34.9902 24 34.9902C22.1867 34.9902 20.5133 34.5436 18.98 33.6502C17.4467 32.7569 16.2333 31.5436 15.34 30.0102C14.4467 28.4769 14 26.8036 14 24.9902ZM15.66 24.9902C15.66 27.0702 16.36 28.9036 17.76 30.4902C18.4 29.2369 19.4133 28.0436 20.8 26.9102C22.1867 25.7769 23.54 25.0636 24.86 24.7702C24.66 24.3036 24.4667 23.8836 24.28 23.5102C21.9867 24.2436 19.5067 24.6102 16.84 24.6102C16.32 24.6102 15.9333 24.6036 15.68 24.5902C15.68 24.6436 15.6767 24.7102 15.67 24.7902C15.6633 24.8702 15.66 24.9369 15.66 24.9902ZM15.92 22.9302C16.2133 22.9569 16.6467 22.9702 17.22 22.9702C19.4467 22.9702 21.56 22.6702 23.56 22.0702C22.5467 20.2702 21.4333 18.7702 20.22 17.5702C19.1667 18.1036 18.2633 18.8436 17.51 19.7902C16.7567 20.7369 16.2267 21.7836 15.92 22.9302ZM18.9 31.5702C20.4067 32.7436 22.1067 33.3302 24 33.3302C24.9867 33.3302 25.9667 33.1436 26.94 32.7702C26.6733 30.4902 26.1533 28.2836 25.38 26.1502C24.1533 26.4169 22.9167 27.0902 21.67 28.1702C20.4233 29.2502 19.5 30.3836 18.9 31.5702ZM21.96 16.9302C23.1333 18.1436 24.22 19.6569 25.22 21.4702C27.0333 20.7102 28.4 19.7436 29.32 18.5702C27.7733 17.2902 26 16.6502 24 16.6502C23.32 16.6502 22.64 16.7436 21.96 16.9302ZM25.94 22.8902C26.14 23.3169 26.3667 23.8569 26.62 24.5102C27.6067 24.4169 28.68 24.3702 29.84 24.3702C30.6667 24.3702 31.4867 24.3902 32.3 24.4302C32.1933 22.6169 31.54 21.0036 30.34 19.5902C29.4733 20.8836 28.0067 21.9836 25.94 22.8902ZM27.12 25.9102C27.8 27.8836 28.26 29.9102 28.5 31.9902C29.5533 31.3102 30.4133 30.4369 31.08 29.3702C31.7467 28.3036 32.1467 27.1502 32.28 25.9102C31.3067 25.8436 30.42 25.8102 29.62 25.8102C28.8867 25.8102 28.0533 25.8436 27.12 25.9102Z" fill="#4A60A1"/>
</g>
<defs>
<clipPath id="clip0_308_2055">
<rect width="20" height="20" fill="white" transform="translate(14 14.9902)"/>
</clipPath>
</defs>
</svg>
