<svg width="48" height="49" viewBox="0 0 48 49" fill="none" xmlns="http://www.w3.org/2000/svg">
<rect width="48" height="48" transform="translate(0 0.990234)" fill="#EDEFF6"/>
<g clip-path="url(#clip0_308_2059)">
<path d="M20.6672 24.9902C20.6672 23.1494 22.1591 21.6566 24 21.6566C25.8409 21.6566 27.3336 23.1494 27.3336 24.9902C27.3336 26.8311 25.8409 28.3238 24 28.3238C22.1591 28.3238 20.6672 26.8311 20.6672 24.9902ZM18.8651 24.9902C18.8651 27.8263 21.164 30.1251 24 30.1251C26.836 30.1251 29.1349 27.8263 29.1349 24.9902C29.1349 22.1542 26.836 19.8553 24 19.8553C21.164 19.8553 18.8651 22.1542 18.8651 24.9902ZM28.1381 19.6518C28.1381 20.3141 28.6753 20.8521 29.3385 20.8521C30.0008 20.8521 30.5388 20.3141 30.5388 19.6518C30.5388 18.9894 30.0016 18.4523 29.3385 18.4523C28.6753 18.4523 28.1381 18.9894 28.1381 19.6518ZM19.9596 33.13C18.9847 33.0855 18.4548 32.9232 18.1026 32.7859C17.6357 32.6041 17.3029 32.3876 16.9523 32.0379C16.6026 31.6881 16.3853 31.3553 16.2044 30.8885C16.067 30.5363 15.9047 30.0064 15.8603 29.0314C15.8118 27.9773 15.8021 27.6607 15.8021 24.9902C15.8021 22.3198 15.8126 22.004 15.8603 20.949C15.9047 19.9741 16.0679 19.445 16.2044 19.092C16.3861 18.6251 16.6026 18.2923 16.9523 17.9418C17.3021 17.592 17.6349 17.3747 18.1026 17.1938C18.4548 17.0565 18.9847 16.8941 19.9596 16.8497C21.0137 16.8012 21.3304 16.7915 24 16.7915C26.6704 16.7915 26.9863 16.802 28.0412 16.8497C29.0162 16.8941 29.5452 17.0573 29.8982 17.1938C30.3651 17.3747 30.6979 17.592 31.0485 17.9418C31.3982 18.2915 31.6147 18.6251 31.7964 19.092C31.9338 19.4442 32.0961 19.9741 32.1406 20.949C32.189 22.004 32.1987 22.3198 32.1987 24.9902C32.1987 27.6599 32.189 27.9765 32.1406 29.0314C32.0961 30.0064 31.933 30.5363 31.7964 30.8885C31.6147 31.3553 31.3982 31.6881 31.0485 32.0379C30.6987 32.3876 30.3651 32.6041 29.8982 32.7859C29.546 32.9232 29.0162 33.0855 28.0412 33.13C26.9871 33.1784 26.6704 33.1881 24 33.1881C21.3304 33.1881 21.0137 33.1784 19.9596 33.13ZM19.8772 15.0508C18.8126 15.0993 18.0856 15.2681 17.4499 15.5153C16.7924 15.7705 16.2351 16.113 15.6785 16.6687C15.1228 17.2245 14.7803 17.7818 14.525 18.4402C14.2779 19.0759 14.109 19.8028 14.0606 20.8675C14.0113 21.9337 14 22.2746 14 24.9902C14 27.7059 14.0113 28.0468 14.0606 29.113C14.109 30.1776 14.2779 30.9046 14.525 31.5403C14.7803 32.1978 15.122 32.756 15.6785 33.3117C16.2342 33.8675 16.7916 34.2091 17.4499 34.4652C18.0864 34.7124 18.8126 34.8812 19.8772 34.9297C20.9443 34.9781 21.2843 34.9902 24 34.9902C26.7165 34.9902 27.0565 34.9789 28.1228 34.9297C29.1874 34.8812 29.9144 34.7124 30.5501 34.4652C31.2076 34.2091 31.7649 33.8675 32.3215 33.3117C32.8772 32.756 33.2189 32.1978 33.475 31.5403C33.7221 30.9046 33.8918 30.1776 33.9394 29.113C33.9879 28.046 33.9992 27.7059 33.9992 24.9902C33.9992 22.2746 33.9879 21.9337 33.9394 20.8675C33.891 19.8028 33.7221 19.0759 33.475 18.4402C33.2189 17.7826 32.8772 17.2253 32.3215 16.6687C31.7658 16.113 31.2076 15.7705 30.5509 15.5153C29.9144 15.2681 29.1874 15.0985 28.1236 15.0508C27.0574 15.0024 26.7165 14.9902 24.0008 14.9902C21.2843 14.9902 20.9443 15.0015 19.8772 15.0508Z" fill="#4A60A1"/>
</g>
<defs>
<clipPath id="clip0_308_2059">
<rect width="20" height="20" fill="white" transform="translate(14 14.9902)"/>
</clipPath>
</defs>
</svg>
