<svg width="48" height="49" viewBox="0 0 48 49" fill="none" xmlns="http://www.w3.org/2000/svg">
<rect width="48" height="48" transform="translate(0 0.990234)" fill="#EDEFF6"/>
<path d="M22.0703 23.9116C22.0703 23.9116 23.9626 23.773 23.9626 21.5827C23.9626 19.3922 22.4145 18.3232 20.4534 18.3232H14.0002V30.5638H20.4534C20.4534 30.5638 24.3928 30.6866 24.3928 26.9509C24.3928 26.951 24.5646 23.9116 22.0703 23.9116ZM19.9889 20.4989H20.4534C20.4534 20.4989 21.3306 20.4989 21.3306 21.7724C21.3306 23.0459 20.8147 23.2305 20.2296 23.2305H16.8436V20.4989H19.9889ZM20.271 28.3883H16.8436V25.1171H20.4534C20.4534 25.1171 21.7608 25.1002 21.7608 26.7981C21.7608 28.2299 20.7843 28.3774 20.271 28.3883ZM29.6467 21.4376C24.8776 21.4376 24.8818 26.1408 24.8818 26.1408C24.8818 26.1408 24.5546 30.8198 29.6467 30.8198C29.6467 30.8198 33.8901 31.0591 33.8901 27.5649H31.7078C31.7078 27.5649 31.7805 28.8808 29.7195 28.8808C29.7195 28.8808 27.5368 29.0251 27.5368 26.7512H33.9628C33.9628 26.7511 34.666 21.4376 29.6467 21.4376ZM27.5129 25.1171C27.5129 25.1171 27.7793 23.2305 29.6952 23.2305C31.6106 23.2305 31.5866 25.1171 31.5866 25.1171H27.5129ZM32.095 20.5517H26.9786V19.0444H32.095V20.5517Z" fill="#4A60A1"/>
</svg>
